<svg width="3944" height="1162" viewBox="0 0 3944 1162" fill="none" xmlns="http://www.w3.org/2000/svg">
<path fill-rule="evenodd" clip-rule="evenodd" d="M1961.92 63.5625L1960.38 0H1956.16C1954.94 5.71875 1953.62 9.32812 1952.22 10.8281C1950.81 12.3281 1948.89 13.0781 1946.45 13.0781C1943.92 13.0781 1939.47 11.5781 1933.09 8.57812C1926.81 5.48438 1921.47 3.375 1917.06 2.25C1911.25 0.75 1905.25 0 1899.06 0C1882.09 0 1868.03 5.34375 1856.88 16.0312C1845.72 26.7188 1840.14 39.6562 1840.14 54.8438C1840.14 63.75 1842.16 71.9062 1846.19 79.3125C1850.31 86.7188 1856.17 93.4219 1863.77 99.4219C1871.36 105.422 1883.83 112.688 1901.17 121.219C1913.55 127.312 1922.17 132.281 1927.05 136.125C1931.92 139.875 1935.53 143.859 1937.88 148.078C1939.86 151.51 1941.03 155.034 1941.4 158.652L1972.17 127.884C1970.38 120.601 1967.06 113.879 1962.2 107.719C1954.42 97.9688 1939.38 87.6094 1917.06 76.6406C1901.12 68.7656 1890.95 63.2812 1886.55 60.1875C1880.55 55.875 1876.19 51.5156 1873.47 47.1094C1871.5 43.8281 1870.52 40.0781 1870.52 35.8594C1870.52 29.2031 1873.28 23.3438 1878.81 18.2812C1884.44 13.125 1892.03 10.5469 1901.59 10.5469C1913.97 10.5469 1925.45 15.4219 1936.05 25.1719C1946.73 34.8281 1953.44 47.625 1956.16 63.5625H1961.92ZM1900.8 199.259L1910.46 189.6C1909.36 189.669 1908.23 189.703 1907.08 189.703C1893.48 189.703 1880.78 184.406 1868.97 173.812C1857.25 163.125 1849.33 147.656 1845.2 127.406H1840V199.406H1845.2C1846.89 195.562 1849.09 192.703 1851.81 190.828C1854.53 188.953 1857.11 188.016 1859.55 188.016C1862.45 188.016 1866.16 188.953 1870.66 190.828C1878.72 194.203 1885.42 196.5 1890.77 197.719C1893.99 198.454 1897.33 198.968 1900.8 199.259Z" fill="#434242"/>
<path fill-rule="evenodd" clip-rule="evenodd" d="M1971.44 131.67V230.219C1971.44 240.531 1970.78 247 1969.47 249.625C1968.25 252.25 1966.05 254.406 1962.86 256.094C1959.77 257.688 1953.81 258.484 1945 258.484V263.688H2041.89V258.484C2033.27 258.484 2027.31 257.688 2024.03 256.094C2020.84 254.5 2018.59 252.391 2017.28 249.766C2016.06 247.047 2015.45 240.531 2015.45 230.219V177.344C2037.11 177.344 2052.48 176.219 2061.58 173.969C2075.08 170.781 2085.67 164.781 2093.36 155.969C2101.05 147.156 2104.89 136.563 2104.89 124.188C2104.89 109.563 2098.94 97.375 2087.03 87.625C2075.42 78.1129 2056.44 73.2408 2030.1 73.0087L2019.14 83.9688H2021.22C2033.5 83.9688 2042.73 87.25 2048.92 93.8125C2055.11 100.375 2058.2 110.734 2058.2 124.891C2058.2 139.141 2055.11 149.688 2048.92 156.531C2042.73 163.281 2033.92 166.656 2022.48 166.656C2020.89 166.656 2018.55 166.563 2015.45 166.375V87.6549L1971.44 131.67Z" fill="#434242"/>
<line x1="1845.94" y1="254.939" x2="2088.94" y2="11.9393" stroke="#434242" stroke-width="3"/>
<path fill-rule="evenodd" clip-rule="evenodd" d="M1000.96 1038.8C1001.35 1039.61 1001.76 1040.41 1002.19 1041.2C1006.31 1048.61 1012.17 1055.31 1019.77 1061.31C1027.36 1067.31 1039.83 1074.58 1057.17 1083.11C1069.55 1089.2 1078.17 1094.17 1083.05 1098.02C1087.92 1101.77 1091.53 1105.75 1093.88 1109.97C1096.31 1114.19 1097.53 1118.55 1097.53 1123.05C1097.53 1130.64 1094.39 1137.3 1088.11 1143.02C1081.92 1148.73 1073.58 1151.59 1063.08 1151.59C1049.48 1151.59 1036.78 1146.3 1024.97 1135.7C1013.25 1125.02 1005.33 1109.55 1001.2 1089.3H996V1161.3H1001.2C1002.89 1157.45 1005.09 1154.59 1007.81 1152.72C1010.53 1150.84 1013.11 1149.91 1015.55 1149.91C1018.45 1149.91 1022.16 1150.84 1026.66 1152.72C1034.72 1156.09 1041.42 1158.39 1046.77 1159.61C1052.11 1160.83 1057.78 1161.44 1063.78 1161.44C1082.91 1161.44 1098.66 1155.72 1111.03 1144.28C1123.5 1132.75 1129.73 1119.02 1129.73 1103.08C1129.73 1090.52 1125.89 1079.36 1118.2 1069.61C1110.42 1059.86 1095.38 1049.5 1073.06 1038.53C1057.12 1030.66 1046.95 1025.17 1042.55 1022.08C1036.91 1018.02 1032.71 1013.93 1029.97 1009.79L1000.96 1038.8ZM1066.46 973.302C1075.5 975.096 1084.03 979.683 1092.05 987.062C1102.73 996.719 1109.44 1009.52 1112.16 1025.45H1117.92L1116.38 961.891H1112.16C1110.94 967.609 1109.62 971.219 1108.22 972.719C1106.81 974.219 1104.89 974.969 1102.45 974.969C1099.92 974.969 1095.47 973.469 1089.09 970.469C1083.73 967.829 1079.06 965.906 1075.06 964.7L1066.46 973.302ZM1258.66 1102.66H1326.02L1336.14 1126.42C1338.77 1132.61 1340.17 1136.12 1340.36 1136.97C1340.92 1138.75 1341.21 1140.48 1341.21 1142.17C1341.21 1144.98 1340.17 1147.14 1338.11 1148.64C1335.11 1150.7 1329.91 1151.73 1322.5 1151.73H1318.71V1156.94H1410.96V1151.73C1405.14 1151.27 1400.64 1149.58 1397.46 1146.67C1393.24 1142.83 1387.85 1133.5 1381.28 1118.69L1312.52 962.312H1309.85L1241.64 1114.47C1235.18 1129 1229.74 1138.61 1225.33 1143.3C1220.93 1147.89 1215.3 1150.7 1208.46 1151.73V1156.94H1271.88V1151.73C1261.94 1150.98 1255.71 1149.86 1253.17 1148.36C1248.86 1145.83 1246.71 1141.89 1246.71 1136.55C1246.71 1132.52 1248.02 1127.41 1250.64 1121.22L1258.66 1102.66ZM1292.83 1026.58L1321.24 1092.25H1263.58L1292.83 1026.58ZM1349.5 915.484C1345.94 911.828 1341.53 910 1336.28 910C1331.13 910 1326.72 911.828 1323.07 915.484C1319.41 919.141 1317.58 923.547 1317.58 928.703C1317.58 933.859 1319.41 938.266 1323.07 941.922C1326.72 945.578 1331.13 947.406 1336.28 947.406C1341.44 947.406 1345.85 945.578 1349.5 941.922C1353.16 938.266 1354.99 933.859 1354.99 928.703C1354.99 923.547 1353.16 919.141 1349.5 915.484ZM1296.91 915.484C1293.35 911.828 1288.94 910 1283.69 910C1278.53 910 1274.13 911.828 1270.47 915.484C1266.82 919.141 1264.99 923.547 1264.99 928.703C1264.99 933.859 1266.82 938.266 1270.47 941.922C1274.13 945.578 1278.53 947.406 1283.69 947.406C1288.85 947.406 1293.25 945.578 1296.91 941.922C1300.57 938.266 1302.39 933.859 1302.39 928.703C1302.39 923.547 1300.57 919.141 1296.91 915.484ZM1653.79 1156.94L1660.96 1090H1655.19C1650.79 1105 1646.1 1116.34 1641.13 1124.03C1636.26 1131.72 1630.44 1137.34 1623.69 1140.91C1616.94 1144.47 1608.51 1146.25 1598.38 1146.25H1582.49C1573.49 1146.25 1567.82 1145.83 1565.47 1144.98C1562.19 1143.67 1559.99 1141.7 1558.87 1139.08C1557.74 1136.36 1557.18 1130.12 1557.18 1120.38V998.875C1557.18 989.312 1557.69 983.406 1558.72 981.156C1560.13 977.969 1562.05 975.719 1564.49 974.406C1567.87 972.438 1572.32 971.453 1577.85 971.453H1586.15V966.25H1484.48V971.453H1490.8C1496.15 971.453 1500.37 972.391 1503.46 974.266C1506.65 976.047 1508.76 978.156 1509.79 980.594C1510.82 983.031 1511.33 989.125 1511.33 998.875V1124.31C1511.33 1133.88 1510.82 1139.78 1509.79 1142.03C1508.47 1145.22 1506.6 1147.47 1504.16 1148.78C1500.79 1150.75 1496.33 1151.73 1490.8 1151.73H1484.48V1156.94H1653.79ZM1910.68 1156.94L1917.85 1090H1912.09C1907.68 1105 1902.99 1116.34 1898.03 1124.03C1893.15 1131.72 1887.34 1137.34 1880.59 1140.91C1873.84 1144.47 1865.4 1146.25 1855.28 1146.25H1839.38C1830.38 1146.25 1824.71 1145.83 1822.37 1144.98C1819.09 1143.67 1816.88 1141.7 1815.76 1139.08C1814.63 1136.36 1814.07 1130.12 1814.07 1120.38V998.875C1814.07 989.312 1814.59 983.406 1815.62 981.156C1817.03 977.969 1818.95 975.719 1821.38 974.406C1824.76 972.438 1829.21 971.453 1834.74 971.453H1843.04V966.25H1741.37V971.453H1747.7C1753.04 971.453 1757.26 972.391 1760.35 974.266C1763.54 976.047 1765.65 978.156 1766.68 980.594C1767.71 983.031 1768.23 989.125 1768.23 998.875V1124.31C1768.23 1133.88 1767.71 1139.78 1766.68 1142.03C1765.37 1145.22 1763.49 1147.47 1761.06 1148.78C1757.68 1150.75 1753.23 1151.73 1747.7 1151.73H1741.37V1156.94H1910.68ZM2129.75 1025.45L2128.2 961.891H2123.98C2122.76 967.609 2121.45 971.219 2120.04 972.719C2118.64 974.219 2116.72 974.969 2114.28 974.969C2111.75 974.969 2107.29 973.469 2100.92 970.469C2094.64 967.375 2089.29 965.266 2084.89 964.141C2079.07 962.641 2073.07 961.891 2066.89 961.891C2049.92 961.891 2035.86 967.234 2024.7 977.922C2013.54 988.609 2007.97 1001.55 2007.97 1016.73C2007.97 1025.64 2009.98 1033.8 2014.01 1041.2C2018.14 1048.61 2024 1055.31 2031.59 1061.31C2039.18 1067.31 2051.65 1074.58 2069 1083.11C2081.37 1089.2 2090 1094.17 2094.87 1098.02C2099.75 1101.77 2103.36 1105.75 2105.7 1109.97C2108.14 1114.19 2109.36 1118.55 2109.36 1123.05C2109.36 1130.64 2106.22 1137.3 2099.93 1143.02C2093.75 1148.73 2085.4 1151.59 2074.9 1151.59C2061.31 1151.59 2048.61 1146.3 2036.79 1135.7C2025.07 1125.02 2017.15 1109.55 2013.03 1089.3H2007.83V1161.3H2013.03C2014.72 1157.45 2016.92 1154.59 2019.64 1152.72C2022.36 1150.84 2024.93 1149.91 2027.37 1149.91C2030.28 1149.91 2033.98 1150.84 2038.48 1152.72C2046.54 1156.09 2053.25 1158.39 2058.59 1159.61C2063.93 1160.83 2069.61 1161.44 2075.61 1161.44C2094.73 1161.44 2110.48 1155.72 2122.86 1144.28C2135.32 1132.75 2141.56 1119.02 2141.56 1103.08C2141.56 1090.52 2137.72 1079.36 2130.03 1069.61C2122.25 1059.86 2107.2 1049.5 2084.89 1038.53C2068.95 1030.66 2058.78 1025.17 2054.37 1022.08C2048.37 1017.77 2044.01 1013.41 2041.29 1009C2039.32 1005.72 2038.34 1001.97 2038.34 997.75C2038.34 991.094 2041.11 985.234 2046.64 980.172C2052.26 975.016 2059.86 972.438 2069.42 972.438C2081.79 972.438 2093.28 977.312 2103.87 987.062C2114.56 996.719 2121.26 1009.52 2123.98 1025.45H2129.75ZM2405.06 1123.19L2337.98 1039.23L2393.81 994.516C2407.5 983.453 2416.22 976.984 2419.97 975.109C2423.81 973.141 2429.06 971.922 2435.72 971.453V966.25H2361.33V971.453C2369.48 971.734 2374.59 972.391 2376.66 973.422C2380.69 975.484 2382.7 978.297 2382.7 981.859C2382.7 986.641 2377.78 993.016 2367.94 1000.98L2297.2 1058.22V998.875C2297.2 989.219 2297.77 983.219 2298.89 980.875C2300.3 977.781 2302.22 975.578 2304.66 974.266C2308.03 972.391 2312.95 971.453 2319.42 971.453V966.25H2224.5V971.453H2230.83C2236.17 971.453 2240.39 972.391 2243.48 974.266C2246.67 976.047 2248.78 978.156 2249.81 980.594C2250.84 983.031 2251.36 989.125 2251.36 998.875V1124.31C2251.36 1133.88 2250.84 1139.78 2249.81 1142.03C2248.5 1145.22 2246.62 1147.47 2244.19 1148.78C2240.81 1150.75 2236.36 1151.73 2230.83 1151.73H2224.5V1156.94H2320.69V1151.73C2313.66 1151.73 2308.55 1150.89 2305.36 1149.2C2302.17 1147.42 2300.02 1145.31 2298.89 1142.88C2297.77 1140.44 2297.2 1134.25 2297.2 1124.31V1072.28L2304.23 1066.38L2347.97 1121.36C2356.59 1132.23 2360.91 1139.64 2360.91 1143.58C2360.91 1145.64 2359.97 1147.38 2358.09 1148.78C2356.31 1150.19 2352.28 1151.17 2346 1151.73V1156.94H2445.28V1151.73C2439.75 1151.73 2434.5 1150.23 2429.53 1147.23C2422.69 1143.02 2414.53 1135 2405.06 1123.19ZM2559.44 1102.66H2626.8L2636.93 1126.42C2639.55 1132.61 2640.96 1136.12 2641.14 1136.97C2641.71 1138.75 2641.99 1140.48 2641.99 1142.17C2641.99 1144.98 2640.96 1147.14 2638.89 1148.64C2635.89 1150.7 2630.69 1151.73 2623.28 1151.73H2619.49V1156.94H2711.74V1151.73C2705.93 1151.27 2701.43 1149.58 2698.24 1146.67C2694.02 1142.83 2688.63 1133.5 2682.07 1118.69L2613.3 962.312H2610.63L2542.43 1114.47C2535.96 1129 2530.52 1138.61 2526.11 1143.3C2521.71 1147.89 2516.08 1150.7 2509.24 1151.73V1156.94H2572.66V1151.73C2562.72 1150.98 2556.49 1149.86 2553.96 1148.36C2549.64 1145.83 2547.49 1141.89 2547.49 1136.55C2547.49 1132.52 2548.8 1127.41 2551.43 1121.22L2559.44 1102.66ZM2593.61 1026.58L2622.02 1092.25H2564.36L2593.61 1026.58ZM2857.68 1123.47V1070.59C2879.33 1070.59 2894.71 1069.47 2903.8 1067.22C2917.3 1064.03 2927.9 1058.03 2935.58 1049.22C2943.27 1040.41 2947.12 1029.81 2947.12 1017.44C2947.12 1002.81 2941.16 990.625 2929.26 980.875C2917.35 971.125 2897.71 966.25 2870.33 966.25H2787.22V971.453C2795.94 971.453 2801.9 972.25 2805.08 973.844C2808.27 975.438 2810.47 977.594 2811.69 980.312C2813.01 982.938 2813.66 989.406 2813.66 999.719V1123.47C2813.66 1133.78 2813.01 1140.25 2811.69 1142.88C2810.47 1145.5 2808.27 1147.66 2805.08 1149.34C2801.99 1150.94 2796.04 1151.73 2787.22 1151.73V1156.94H2884.12V1151.73C2875.49 1151.73 2869.54 1150.94 2866.26 1149.34C2863.07 1147.75 2860.82 1145.64 2859.51 1143.02C2858.29 1140.3 2857.68 1133.78 2857.68 1123.47ZM2857.68 1059.62V977.219H2863.44C2875.72 977.219 2884.96 980.5 2891.15 987.062C2897.33 993.625 2900.43 1003.98 2900.43 1018.14C2900.43 1032.39 2897.33 1042.94 2891.15 1049.78C2884.96 1056.53 2876.15 1059.91 2864.71 1059.91C2863.12 1059.91 2860.77 1059.81 2857.68 1059.62Z" fill="#434242"/>
<path fill-rule="evenodd" clip-rule="evenodd" d="M1816.44 642.599V741.148C1816.44 751.46 1815.78 757.929 1814.47 760.554C1813.25 763.179 1811.05 765.335 1807.86 767.023C1804.77 768.616 1798.81 769.413 1790 769.413V774.616H1886.89V769.413C1878.27 769.413 1872.31 768.616 1869.03 767.023C1865.84 765.429 1863.59 763.319 1862.28 760.694C1861.06 757.976 1860.45 751.46 1860.45 741.148V688.273C1882.11 688.273 1897.48 687.148 1906.58 684.898C1920.08 681.71 1930.67 675.71 1938.36 666.898C1946.05 658.085 1949.89 647.491 1949.89 635.116C1949.89 620.491 1943.94 608.304 1932.03 598.554C1920.42 589.042 1901.44 584.17 1875.1 583.938L1864.14 594.898H1866.22C1878.5 594.898 1887.73 598.179 1893.92 604.741C1900.11 611.304 1903.2 621.663 1903.2 635.819C1903.2 650.069 1900.11 660.616 1893.92 667.46C1887.73 674.21 1878.92 677.585 1867.48 677.585C1865.89 677.585 1863.55 677.491 1860.45 677.304V598.584L1816.44 642.599ZM2208.75 607.835C2189.82 588.991 2165.16 580.132 2134.78 581.257C2106.66 580.132 2082.94 589.038 2063.63 607.976C2044.41 626.819 2034.8 650.398 2034.8 678.71C2034.8 703.929 2042.21 725.726 2057.02 744.101C2075.77 767.351 2102.3 778.976 2136.61 778.976C2170.83 778.976 2197.32 766.788 2216.07 742.413C2230.22 724.038 2237.3 702.757 2237.3 678.569C2237.3 650.257 2227.78 626.679 2208.75 607.835ZM2096.67 616.976C2105.77 599.163 2119.03 590.257 2136.47 590.257C2145.94 590.257 2154.28 592.835 2161.5 597.991C2168.82 603.148 2174.82 612.007 2179.5 624.569C2184.19 637.038 2186.53 655.882 2186.53 681.101C2186.53 702.288 2184.24 719.491 2179.64 732.71C2175.05 745.835 2168.63 755.398 2160.38 761.398C2153.91 766.085 2145.85 768.429 2136.19 768.429C2121.85 768.429 2110.69 762.991 2102.72 752.116C2091.28 736.554 2085.57 712.507 2085.57 679.976C2085.57 652.601 2089.27 631.601 2096.67 616.976ZM2390.97 672.523V594.898H2410.66C2425.1 594.898 2434.94 595.741 2440.19 597.429C2449.19 600.241 2456.13 604.648 2461.01 610.648C2465.97 616.648 2469.82 626.538 2472.54 640.319H2477.88V583.929H2318.27V589.132H2324.6C2330.79 589.132 2335.66 590.444 2339.22 593.069C2341.76 594.851 2343.49 597.382 2344.43 600.663C2344.9 602.632 2345.13 607.929 2345.13 616.554V741.991C2345.13 751.554 2344.62 757.46 2343.58 759.71C2342.27 762.898 2340.4 765.148 2337.96 766.46C2334.58 768.429 2330.13 769.413 2324.6 769.413H2318.27V774.616H2483.08L2491.66 714.007H2486.46C2481.77 730.882 2474.04 743.444 2463.26 751.694C2452.57 759.944 2438.32 764.069 2420.51 764.069H2409.12C2403.68 764.069 2399.74 763.319 2397.3 761.819C2394.87 760.319 2393.18 758.398 2392.24 756.054C2391.4 753.71 2390.97 747.288 2390.97 736.788V683.069C2400.07 683.069 2407.01 684.288 2411.79 686.726C2416.57 689.069 2420.74 693.71 2424.3 700.648C2427.96 707.585 2430.35 716.491 2431.47 727.366H2436.82V627.523H2431.47C2429.97 642.335 2426.51 653.538 2421.07 661.132C2415.63 668.726 2406.87 672.523 2394.77 672.523H2390.97ZM2751.09 635.538V583.929H2579.81V635.538H2585.15C2587.31 621.476 2592.46 610.648 2600.62 603.054C2606.43 597.616 2615.76 594.898 2628.6 594.898H2642.38V741.991C2642.38 751.554 2641.87 757.46 2640.84 759.71C2639.43 762.898 2637.51 765.148 2635.07 766.46C2631.7 768.429 2627.24 769.413 2621.71 769.413H2615.38V774.616H2715.23V769.413H2708.9C2703.46 769.413 2699.15 768.523 2695.96 766.741C2692.87 764.866 2690.76 762.71 2689.63 760.273C2688.6 757.835 2688.09 751.741 2688.09 741.991V594.898H2702.29C2711.2 594.898 2717.43 595.741 2720.99 597.429C2727.37 600.523 2732.38 604.694 2736.04 609.944C2739.7 615.101 2743.03 623.632 2746.03 635.538H2751.09ZM2904.76 672.523V594.898H2924.45C2938.89 594.898 2948.73 595.741 2953.98 597.429C2962.98 600.241 2969.92 604.648 2974.79 610.648C2979.76 616.648 2983.61 626.538 2986.32 640.319H2991.67V583.929H2832.06V589.132H2838.39C2844.57 589.132 2849.45 590.444 2853.01 593.069C2855.54 594.851 2857.28 597.382 2858.22 600.663C2858.68 602.632 2858.92 607.929 2858.92 616.554V741.991C2858.92 751.554 2858.4 757.46 2857.37 759.71C2856.06 762.898 2854.18 765.148 2851.75 766.46C2848.37 768.429 2843.92 769.413 2838.39 769.413H2832.06V774.616H2996.87L3005.45 714.007H3000.25C2995.56 730.882 2987.82 743.444 2977.04 751.694C2966.36 759.944 2952.11 764.069 2934.29 764.069H2922.9C2917.47 764.069 2913.53 763.319 2911.09 761.819C2908.65 760.319 2906.97 758.398 2906.03 756.054C2905.18 753.71 2904.76 747.288 2904.76 736.788V683.069C2913.86 683.069 2920.79 684.288 2925.57 686.726C2930.36 689.069 2934.53 693.71 2938.09 700.648C2941.75 707.585 2944.14 716.491 2945.26 727.366H2950.61V627.523H2945.26C2943.76 642.335 2940.29 653.538 2934.86 661.132C2929.42 668.726 2920.65 672.523 2908.56 672.523H2904.76ZM3159.69 741.148V687.71H3172.2L3233.66 774.616H3293.7V769.413C3288.64 769.132 3284.19 767.538 3280.34 764.632C3277.81 762.569 3273.55 757.366 3267.55 749.023L3221.7 684.476C3233.33 681.569 3242.38 677.21 3248.84 671.398C3258.97 662.21 3264.03 650.585 3264.03 636.523C3264.03 624.991 3260.66 614.96 3253.91 606.429C3247.16 597.804 3238.44 591.898 3227.75 588.71C3217.06 585.523 3200.19 583.929 3177.12 583.929H3088.53V589.132C3097.25 589.132 3103.2 589.929 3106.39 591.523C3109.58 593.116 3111.78 595.273 3113 597.991C3114.31 600.616 3114.97 607.085 3114.97 617.398V741.148C3114.97 751.46 3114.31 757.929 3113 760.554C3111.78 763.179 3109.58 765.335 3106.39 767.023C3103.3 768.616 3097.34 769.413 3088.53 769.413V774.616H3186.12V769.413C3177.41 769.413 3171.45 768.616 3168.27 767.023C3165.08 765.429 3162.83 763.319 3161.52 760.694C3160.3 757.976 3159.69 751.46 3159.69 741.148ZM3159.69 677.726V594.194H3174.73C3189.83 594.194 3200.75 597.663 3207.5 604.601C3214.34 611.538 3217.77 622.273 3217.77 636.804C3217.77 646.835 3215.89 654.991 3212.14 661.273C3208.48 667.46 3203.42 671.773 3196.95 674.21C3190.48 676.554 3180.73 677.726 3167.7 677.726H3159.69ZM3492.94 643.132L3491.39 579.569H3487.18C3485.96 585.288 3484.64 588.898 3483.24 590.398C3481.83 591.898 3479.91 592.648 3477.47 592.648C3474.94 592.648 3470.49 591.148 3464.11 588.148C3457.83 585.054 3452.49 582.944 3448.08 581.819C3442.27 580.319 3436.27 579.569 3430.08 579.569C3413.11 579.569 3399.05 584.913 3387.89 595.601C3376.74 606.288 3371.16 619.226 3371.16 634.413C3371.16 643.319 3373.18 651.476 3377.21 658.882C3381.33 666.288 3387.19 672.991 3394.78 678.991C3402.38 684.991 3414.85 692.257 3432.19 700.788C3444.57 706.882 3453.19 711.851 3458.07 715.694C3462.94 719.444 3466.55 723.429 3468.89 727.648C3471.33 731.866 3472.55 736.226 3472.55 740.726C3472.55 748.319 3469.41 754.976 3463.13 760.694C3456.94 766.413 3448.6 769.273 3438.1 769.273C3424.5 769.273 3411.8 763.976 3399.99 753.382C3388.27 742.694 3380.35 727.226 3376.22 706.976H3371.02V778.976H3376.22C3377.91 775.132 3380.11 772.273 3382.83 770.398C3385.55 768.523 3388.13 767.585 3390.57 767.585C3393.47 767.585 3397.18 768.523 3401.68 770.398C3409.74 773.773 3416.44 776.069 3421.78 777.288C3427.13 778.507 3432.8 779.116 3438.8 779.116C3457.93 779.116 3473.68 773.398 3486.05 761.96C3498.52 750.429 3504.75 736.694 3504.75 720.757C3504.75 708.194 3500.91 697.038 3493.22 687.288C3485.44 677.538 3470.39 667.179 3448.08 656.21C3432.14 648.335 3421.97 642.851 3417.57 639.757C3411.57 635.444 3407.21 631.085 3404.49 626.679C3402.52 623.398 3401.53 619.648 3401.53 615.429C3401.53 608.773 3404.3 602.913 3409.83 597.851C3415.46 592.694 3423.05 590.116 3432.61 590.116C3444.99 590.116 3456.47 594.991 3467.07 604.741C3477.75 614.398 3484.46 627.194 3487.18 643.132H3492.94Z" fill="#434242"/>
<path fill-rule="evenodd" clip-rule="evenodd" d="M442.473 659.572C443.224 661.495 444.097 663.372 445.094 665.203C449.219 672.609 455.078 679.312 462.672 685.312C470.266 691.312 482.734 698.578 500.078 707.109C512.453 713.203 521.078 718.172 525.953 722.016C530.828 725.766 534.438 729.75 536.781 733.969C539.219 738.188 540.438 742.547 540.438 747.047C540.438 754.641 537.297 761.297 531.016 767.016C524.828 772.734 516.484 775.594 505.984 775.594C492.391 775.594 479.688 770.297 467.875 759.703C456.156 749.016 448.234 733.547 444.109 713.297H438.906V785.297H444.109C445.797 781.453 448 778.594 450.719 776.719C453.438 774.844 456.016 773.906 458.453 773.906C461.359 773.906 465.062 774.844 469.562 776.719C477.625 780.094 484.328 782.391 489.672 783.609C495.016 784.828 500.688 785.438 506.688 785.438C525.812 785.438 541.562 779.719 553.938 768.281C566.406 756.75 572.641 743.016 572.641 727.078C572.641 714.516 568.797 703.359 561.109 693.609C553.328 683.859 538.281 673.5 515.969 662.531C500.031 654.656 489.859 649.172 485.453 646.078C479.453 641.766 475.094 637.406 472.375 633C471.95 632.291 471.57 631.561 471.237 630.808L442.473 659.572ZM505.353 596.692C515.891 597.809 525.758 602.599 534.953 611.062C545.641 620.719 552.344 633.516 555.062 649.453H560.828L559.281 585.891H555.062C553.844 591.609 552.531 595.219 551.125 596.719C549.719 598.219 547.797 598.969 545.359 598.969C542.828 598.969 538.375 597.469 532 594.469C525.719 591.375 520.375 589.266 515.969 588.141C515.418 587.998 514.865 587.863 514.311 587.734L505.353 596.692ZM836.144 747.188L769.066 663.234L824.894 618.516C838.581 607.453 847.3 600.984 851.05 599.109C854.894 597.141 860.144 595.922 866.8 595.453V590.25H792.409V595.453C800.566 595.734 805.675 596.391 807.737 597.422C811.769 599.484 813.784 602.297 813.784 605.859C813.784 610.641 808.862 617.016 799.019 624.984L728.284 682.219V622.875C728.284 613.219 728.847 607.219 729.972 604.875C731.378 601.781 733.3 599.578 735.737 598.266C739.112 596.391 744.034 595.453 750.503 595.453V590.25H655.581V595.453H661.909C667.253 595.453 671.472 596.391 674.566 598.266C677.753 600.047 679.863 602.156 680.894 604.594C681.925 607.031 682.441 613.125 682.441 622.875V748.312C682.441 757.875 681.925 763.781 680.894 766.031C679.581 769.219 677.706 771.469 675.269 772.781C671.894 774.75 667.441 775.734 661.909 775.734H655.581V780.938H751.769V775.734C744.737 775.734 739.628 774.891 736.441 773.203C733.253 771.422 731.097 769.312 729.972 766.875C728.847 764.438 728.284 758.25 728.284 748.312V696.281L735.316 690.375L779.05 745.359C787.675 756.234 791.987 763.641 791.987 767.578C791.987 769.641 791.05 771.375 789.175 772.781C787.394 774.188 783.362 775.172 777.081 775.734V780.938H876.362V775.734C870.831 775.734 865.581 774.234 860.612 771.234C853.769 767.016 845.612 759 836.144 747.188ZM1123.27 614.156C1104.33 595.312 1079.68 586.453 1049.3 587.578C1021.18 586.453 997.459 595.359 978.147 614.297C958.928 633.141 949.319 656.719 949.319 685.031C949.319 710.25 956.725 732.047 971.537 750.422C990.287 773.672 1016.82 785.297 1051.13 785.297C1085.35 785.297 1111.83 773.109 1130.58 748.734C1144.74 730.359 1151.82 709.078 1151.82 684.891C1151.82 656.578 1142.3 633 1123.27 614.156ZM1011.19 623.297C1020.29 605.484 1033.55 596.578 1050.99 596.578C1060.46 596.578 1068.8 599.156 1076.02 604.312C1083.33 609.469 1089.33 618.328 1094.02 630.891C1098.71 643.359 1101.05 662.203 1101.05 687.422C1101.05 708.609 1098.76 725.812 1094.16 739.031C1089.57 752.156 1083.15 761.719 1074.9 767.719C1068.43 772.406 1060.37 774.75 1050.71 774.75C1036.37 774.75 1025.21 769.312 1017.24 758.438C1005.8 742.875 1000.08 718.828 1000.08 686.297C1000.08 658.922 1003.79 637.922 1011.19 623.297ZM1090.22 539.484C1086.66 535.828 1082.26 534 1077.01 534C1071.85 534 1067.44 535.828 1063.79 539.484C1060.13 543.141 1058.3 547.547 1058.3 552.703C1058.3 557.859 1060.13 562.266 1063.79 565.922C1067.44 569.578 1071.85 571.406 1077.01 571.406C1082.16 571.406 1086.57 569.578 1090.22 565.922C1093.88 562.266 1095.71 557.859 1095.71 552.703C1095.71 547.547 1093.88 543.141 1090.22 539.484ZM1037.63 539.484C1034.07 535.828 1029.66 534 1024.41 534C1019.26 534 1014.85 535.828 1011.19 539.484C1007.54 543.141 1005.71 547.547 1005.71 552.703C1005.71 557.859 1007.54 562.266 1011.19 565.922C1014.85 569.578 1019.26 571.406 1024.41 571.406C1029.57 571.406 1033.97 569.578 1037.63 565.922C1041.29 562.266 1043.12 557.859 1043.12 552.703C1043.12 547.547 1041.29 543.141 1037.63 539.484ZM1392.82 708.516L1298.74 590.25H1231.1V595.453C1236.92 595.641 1241.37 596.531 1244.46 598.125C1247.56 599.719 1251.12 603.047 1255.15 608.109L1259.23 613.172V747.75C1259.23 757.875 1257.17 765.047 1253.04 769.266C1248.92 773.484 1241.6 775.641 1231.1 775.734V780.938H1298.74V775.734H1294.24C1287.78 775.734 1282.01 773.812 1276.95 769.969C1271.98 766.125 1269.49 758.719 1269.49 747.75V626.531L1398.45 785.297H1403.23V626.531C1403.23 617.531 1403.98 611.203 1405.48 607.547C1407.07 603.797 1409.23 601.125 1411.95 599.531C1414.76 597.844 1420.2 596.484 1428.26 595.453V590.25H1365.26V595.453C1375.85 595.266 1383.4 597.891 1387.9 603.328C1391.18 607.359 1392.82 615.094 1392.82 626.531V708.516ZM1552.4 726.656H1619.76L1629.89 750.422C1632.51 756.609 1633.92 760.125 1634.11 760.969C1634.67 762.75 1634.95 764.484 1634.95 766.172C1634.95 768.984 1633.92 771.141 1631.86 772.641C1628.86 774.703 1623.65 775.734 1616.25 775.734H1612.45V780.938H1704.7V775.734C1698.89 775.266 1694.39 773.578 1691.2 770.672C1686.98 766.828 1681.59 757.5 1675.03 742.688L1606.26 586.312H1603.59L1535.39 738.469C1528.92 753 1523.48 762.609 1519.07 767.297C1514.67 771.891 1509.04 774.703 1502.2 775.734V780.938H1565.62V775.734C1555.68 774.984 1549.45 773.859 1546.92 772.359C1542.61 769.828 1540.45 765.891 1540.45 760.547C1540.45 756.516 1541.76 751.406 1544.39 745.219L1552.4 726.656ZM1586.57 650.578L1614.98 716.25H1557.32L1586.57 650.578Z" fill="#434242"/>
</svg>
