<svg width="3634" height="1162" viewBox="0 0 3634 1162" fill="none" xmlns="http://www.w3.org/2000/svg">
<path fill-rule="evenodd" clip-rule="evenodd" d="M1806.92 63.5625L1805.38 0H1801.16C1799.94 5.71875 1798.62 9.32812 1797.22 10.8281C1795.81 12.3281 1793.89 13.0781 1791.45 13.0781C1788.92 13.0781 1784.47 11.5781 1778.09 8.57812C1771.81 5.48438 1766.47 3.375 1762.06 2.25C1756.25 0.75 1750.25 0 1744.06 0C1727.09 0 1713.03 5.34375 1701.88 16.0312C1690.72 26.7188 1685.14 39.6562 1685.14 54.8438C1685.14 63.75 1687.16 71.9062 1691.19 79.3125C1695.31 86.7188 1701.17 93.4219 1708.77 99.4219C1716.36 105.422 1728.83 112.688 1746.17 121.219C1758.55 127.312 1767.17 132.281 1772.05 136.125C1776.92 139.875 1780.53 143.859 1782.88 148.078C1784.86 151.51 1786.03 155.034 1786.4 158.652L1817.17 127.884C1815.38 120.601 1812.06 113.879 1807.2 107.719C1799.42 97.9688 1784.38 87.6094 1762.06 76.6406C1746.12 68.7656 1735.95 63.2812 1731.55 60.1875C1725.55 55.875 1721.19 51.5156 1718.47 47.1094C1716.5 43.8281 1715.52 40.0781 1715.52 35.8594C1715.52 29.2031 1718.28 23.3438 1723.81 18.2812C1729.44 13.125 1737.03 10.5469 1746.59 10.5469C1758.97 10.5469 1770.45 15.4219 1781.05 25.1719C1791.73 34.8281 1798.44 47.625 1801.16 63.5625H1806.92ZM1745.8 199.259L1755.46 189.6C1754.36 189.669 1753.23 189.703 1752.08 189.703C1738.48 189.703 1725.78 184.406 1713.97 173.812C1702.25 163.125 1694.33 147.656 1690.2 127.406H1685V199.406H1690.2C1691.89 195.562 1694.09 192.703 1696.81 190.828C1699.53 188.953 1702.11 188.016 1704.55 188.016C1707.45 188.016 1711.16 188.953 1715.66 190.828C1723.72 194.203 1730.42 196.5 1735.77 197.719C1738.99 198.454 1742.33 198.968 1745.8 199.259Z" fill="white"/>
<path fill-rule="evenodd" clip-rule="evenodd" d="M1816.44 131.67V230.219C1816.44 240.531 1815.78 247 1814.47 249.625C1813.25 252.25 1811.05 254.406 1807.86 256.094C1804.77 257.688 1798.81 258.484 1790 258.484V263.688H1886.89V258.484C1878.27 258.484 1872.31 257.688 1869.03 256.094C1865.84 254.5 1863.59 252.391 1862.28 249.766C1861.06 247.047 1860.45 240.531 1860.45 230.219V177.344C1882.11 177.344 1897.48 176.219 1906.58 173.969C1920.08 170.781 1930.67 164.781 1938.36 155.969C1946.05 147.156 1949.89 136.563 1949.89 124.188C1949.89 109.563 1943.94 97.375 1932.03 87.625C1920.42 78.1129 1901.44 73.2408 1875.1 73.0087L1864.14 83.9688H1866.22C1878.5 83.9688 1887.73 87.25 1893.92 93.8125C1900.11 100.375 1903.2 110.734 1903.2 124.891C1903.2 139.141 1900.11 149.688 1893.92 156.531C1887.73 163.281 1878.92 166.656 1867.48 166.656C1865.89 166.656 1863.55 166.563 1860.45 166.375V87.6549L1816.44 131.67Z" fill="white"/>
<line x1="1690.94" y1="254.939" x2="1933.94" y2="11.9393" stroke="white" stroke-width="3"/>
<path fill-rule="evenodd" clip-rule="evenodd" d="M845.963 1038.8C846.348 1039.61 846.756 1040.41 847.188 1041.2C851.312 1048.61 857.172 1055.31 864.766 1061.31C872.359 1067.31 884.828 1074.58 902.172 1083.11C914.547 1089.2 923.172 1094.17 928.047 1098.02C932.922 1101.77 936.531 1105.75 938.875 1109.97C941.312 1114.19 942.531 1118.55 942.531 1123.05C942.531 1130.64 939.391 1137.3 933.109 1143.02C926.922 1148.73 918.578 1151.59 908.078 1151.59C894.484 1151.59 881.781 1146.3 869.969 1135.7C858.25 1125.02 850.328 1109.55 846.203 1089.3H841V1161.3H846.203C847.891 1157.45 850.094 1154.59 852.812 1152.72C855.531 1150.84 858.109 1149.91 860.547 1149.91C863.453 1149.91 867.156 1150.84 871.656 1152.72C879.719 1156.09 886.422 1158.39 891.766 1159.61C897.109 1160.83 902.781 1161.44 908.781 1161.44C927.906 1161.44 943.656 1155.72 956.031 1144.28C968.5 1132.75 974.734 1119.02 974.734 1103.08C974.734 1090.52 970.891 1079.36 963.203 1069.61C955.422 1059.86 940.375 1049.5 918.062 1038.53C902.125 1030.66 891.953 1025.17 887.547 1022.08C881.906 1018.02 877.715 1013.93 874.974 1009.79L845.963 1038.8ZM911.462 973.302C920.501 975.096 929.029 979.683 937.047 987.062C947.734 996.719 954.438 1009.52 957.156 1025.45H962.922L961.375 961.891H957.156C955.938 967.609 954.625 971.219 953.219 972.719C951.812 974.219 949.891 974.969 947.453 974.969C944.922 974.969 940.469 973.469 934.094 970.469C928.735 967.829 924.058 965.906 920.064 964.7L911.462 973.302ZM1103.66 1102.66H1171.02L1181.14 1126.42C1183.77 1132.61 1185.17 1136.12 1185.36 1136.97C1185.92 1138.75 1186.21 1140.48 1186.21 1142.17C1186.21 1144.98 1185.17 1147.14 1183.11 1148.64C1180.11 1150.7 1174.91 1151.73 1167.5 1151.73H1163.71V1156.94H1255.96V1151.73C1250.14 1151.27 1245.64 1149.58 1242.46 1146.67C1238.24 1142.83 1232.85 1133.5 1226.28 1118.69L1157.52 962.312H1154.85L1086.64 1114.47C1080.18 1129 1074.74 1138.61 1070.33 1143.3C1065.93 1147.89 1060.3 1150.7 1053.46 1151.73V1156.94H1116.88V1151.73C1106.94 1150.98 1100.71 1149.86 1098.17 1148.36C1093.86 1145.83 1091.71 1141.89 1091.71 1136.55C1091.71 1132.52 1093.02 1127.41 1095.64 1121.22L1103.66 1102.66ZM1137.83 1026.58L1166.24 1092.25H1108.58L1137.83 1026.58ZM1194.5 915.484C1190.94 911.828 1186.53 910 1181.28 910C1176.13 910 1171.72 911.828 1168.07 915.484C1164.41 919.141 1162.58 923.547 1162.58 928.703C1162.58 933.859 1164.41 938.266 1168.07 941.922C1171.72 945.578 1176.13 947.406 1181.28 947.406C1186.44 947.406 1190.85 945.578 1194.5 941.922C1198.16 938.266 1199.99 933.859 1199.99 928.703C1199.99 923.547 1198.16 919.141 1194.5 915.484ZM1141.91 915.484C1138.35 911.828 1133.94 910 1128.69 910C1123.53 910 1119.13 911.828 1115.47 915.484C1111.82 919.141 1109.99 923.547 1109.99 928.703C1109.99 933.859 1111.82 938.266 1115.47 941.922C1119.13 945.578 1123.53 947.406 1128.69 947.406C1133.85 947.406 1138.25 945.578 1141.91 941.922C1145.57 938.266 1147.39 933.859 1147.39 928.703C1147.39 923.547 1145.57 919.141 1141.91 915.484ZM1498.79 1156.94L1505.96 1090H1500.19C1495.79 1105 1491.1 1116.34 1486.13 1124.03C1481.26 1131.72 1475.44 1137.34 1468.69 1140.91C1461.94 1144.47 1453.51 1146.25 1443.38 1146.25H1427.49C1418.49 1146.25 1412.82 1145.83 1410.47 1144.98C1407.19 1143.67 1404.99 1141.7 1403.87 1139.08C1402.74 1136.36 1402.18 1130.12 1402.18 1120.38V998.875C1402.18 989.312 1402.69 983.406 1403.72 981.156C1405.13 977.969 1407.05 975.719 1409.49 974.406C1412.87 972.438 1417.32 971.453 1422.85 971.453H1431.15V966.25H1329.48V971.453H1335.8C1341.15 971.453 1345.37 972.391 1348.46 974.266C1351.65 976.047 1353.76 978.156 1354.79 980.594C1355.82 983.031 1356.33 989.125 1356.33 998.875V1124.31C1356.33 1133.88 1355.82 1139.78 1354.79 1142.03C1353.47 1145.22 1351.6 1147.47 1349.16 1148.78C1345.79 1150.75 1341.33 1151.73 1335.8 1151.73H1329.48V1156.94H1498.79ZM1755.68 1156.94L1762.85 1090H1757.09C1752.68 1105 1747.99 1116.34 1743.03 1124.03C1738.15 1131.72 1732.34 1137.34 1725.59 1140.91C1718.84 1144.47 1710.4 1146.25 1700.28 1146.25H1684.38C1675.38 1146.25 1669.71 1145.83 1667.37 1144.98C1664.09 1143.67 1661.88 1141.7 1660.76 1139.08C1659.63 1136.36 1659.07 1130.12 1659.07 1120.38V998.875C1659.07 989.312 1659.59 983.406 1660.62 981.156C1662.03 977.969 1663.95 975.719 1666.38 974.406C1669.76 972.438 1674.21 971.453 1679.74 971.453H1688.04V966.25H1586.37V971.453H1592.7C1598.04 971.453 1602.26 972.391 1605.35 974.266C1608.54 976.047 1610.65 978.156 1611.68 980.594C1612.71 983.031 1613.23 989.125 1613.23 998.875V1124.31C1613.23 1133.88 1612.71 1139.78 1611.68 1142.03C1610.37 1145.22 1608.49 1147.47 1606.06 1148.78C1602.68 1150.75 1598.23 1151.73 1592.7 1151.73H1586.37V1156.94H1755.68ZM1974.75 1025.45L1973.2 961.891H1968.98C1967.76 967.609 1966.45 971.219 1965.04 972.719C1963.64 974.219 1961.72 974.969 1959.28 974.969C1956.75 974.969 1952.29 973.469 1945.92 970.469C1939.64 967.375 1934.29 965.266 1929.89 964.141C1924.07 962.641 1918.07 961.891 1911.89 961.891C1894.92 961.891 1880.86 967.234 1869.7 977.922C1858.54 988.609 1852.97 1001.55 1852.97 1016.73C1852.97 1025.64 1854.98 1033.8 1859.01 1041.2C1863.14 1048.61 1869 1055.31 1876.59 1061.31C1884.18 1067.31 1896.65 1074.58 1914 1083.11C1926.37 1089.2 1935 1094.17 1939.87 1098.02C1944.75 1101.77 1948.36 1105.75 1950.7 1109.97C1953.14 1114.19 1954.36 1118.55 1954.36 1123.05C1954.36 1130.64 1951.22 1137.3 1944.93 1143.02C1938.75 1148.73 1930.4 1151.59 1919.9 1151.59C1906.31 1151.59 1893.61 1146.3 1881.79 1135.7C1870.07 1125.02 1862.15 1109.55 1858.03 1089.3H1852.83V1161.3H1858.03C1859.72 1157.45 1861.92 1154.59 1864.64 1152.72C1867.36 1150.84 1869.93 1149.91 1872.37 1149.91C1875.28 1149.91 1878.98 1150.84 1883.48 1152.72C1891.54 1156.09 1898.25 1158.39 1903.59 1159.61C1908.93 1160.83 1914.61 1161.44 1920.61 1161.44C1939.73 1161.44 1955.48 1155.72 1967.86 1144.28C1980.32 1132.75 1986.56 1119.02 1986.56 1103.08C1986.56 1090.52 1982.72 1079.36 1975.03 1069.61C1967.25 1059.86 1952.2 1049.5 1929.89 1038.53C1913.95 1030.66 1903.78 1025.17 1899.37 1022.08C1893.37 1017.77 1889.01 1013.41 1886.29 1009C1884.32 1005.72 1883.34 1001.97 1883.34 997.75C1883.34 991.094 1886.11 985.234 1891.64 980.172C1897.26 975.016 1904.86 972.438 1914.42 972.438C1926.79 972.438 1938.28 977.312 1948.87 987.062C1959.56 996.719 1966.26 1009.52 1968.98 1025.45H1974.75ZM2250.06 1123.19L2182.98 1039.23L2238.81 994.516C2252.5 983.453 2261.22 976.984 2264.97 975.109C2268.81 973.141 2274.06 971.922 2280.72 971.453V966.25H2206.33V971.453C2214.48 971.734 2219.59 972.391 2221.66 973.422C2225.69 975.484 2227.7 978.297 2227.7 981.859C2227.7 986.641 2222.78 993.016 2212.94 1000.98L2142.2 1058.22V998.875C2142.2 989.219 2142.77 983.219 2143.89 980.875C2145.3 977.781 2147.22 975.578 2149.66 974.266C2153.03 972.391 2157.95 971.453 2164.42 971.453V966.25H2069.5V971.453H2075.83C2081.17 971.453 2085.39 972.391 2088.48 974.266C2091.67 976.047 2093.78 978.156 2094.81 980.594C2095.84 983.031 2096.36 989.125 2096.36 998.875V1124.31C2096.36 1133.88 2095.84 1139.78 2094.81 1142.03C2093.5 1145.22 2091.62 1147.47 2089.19 1148.78C2085.81 1150.75 2081.36 1151.73 2075.83 1151.73H2069.5V1156.94H2165.69V1151.73C2158.66 1151.73 2153.55 1150.89 2150.36 1149.2C2147.17 1147.42 2145.02 1145.31 2143.89 1142.88C2142.77 1140.44 2142.2 1134.25 2142.2 1124.31V1072.28L2149.23 1066.38L2192.97 1121.36C2201.59 1132.23 2205.91 1139.64 2205.91 1143.58C2205.91 1145.64 2204.97 1147.38 2203.09 1148.78C2201.31 1150.19 2197.28 1151.17 2191 1151.73V1156.94H2290.28V1151.73C2284.75 1151.73 2279.5 1150.23 2274.53 1147.23C2267.69 1143.02 2259.53 1135 2250.06 1123.19ZM2404.44 1102.66H2471.8L2481.93 1126.42C2484.55 1132.61 2485.96 1136.12 2486.14 1136.97C2486.71 1138.75 2486.99 1140.48 2486.99 1142.17C2486.99 1144.98 2485.96 1147.14 2483.89 1148.64C2480.89 1150.7 2475.69 1151.73 2468.28 1151.73H2464.49V1156.94H2556.74V1151.73C2550.93 1151.27 2546.43 1149.58 2543.24 1146.67C2539.02 1142.83 2533.63 1133.5 2527.07 1118.69L2458.3 962.312H2455.63L2387.43 1114.47C2380.96 1129 2375.52 1138.61 2371.11 1143.3C2366.71 1147.89 2361.08 1150.7 2354.24 1151.73V1156.94H2417.66V1151.73C2407.72 1150.98 2401.49 1149.86 2398.96 1148.36C2394.64 1145.83 2392.49 1141.89 2392.49 1136.55C2392.49 1132.52 2393.8 1127.41 2396.43 1121.22L2404.44 1102.66ZM2438.61 1026.58L2467.02 1092.25H2409.36L2438.61 1026.58ZM2702.68 1123.47V1070.59C2724.33 1070.59 2739.71 1069.47 2748.8 1067.22C2762.3 1064.03 2772.9 1058.03 2780.58 1049.22C2788.27 1040.41 2792.12 1029.81 2792.12 1017.44C2792.12 1002.81 2786.16 990.625 2774.26 980.875C2762.35 971.125 2742.71 966.25 2715.33 966.25H2632.22V971.453C2640.94 971.453 2646.9 972.25 2650.08 973.844C2653.27 975.438 2655.47 977.594 2656.69 980.312C2658.01 982.938 2658.66 989.406 2658.66 999.719V1123.47C2658.66 1133.78 2658.01 1140.25 2656.69 1142.88C2655.47 1145.5 2653.27 1147.66 2650.08 1149.34C2646.99 1150.94 2641.04 1151.73 2632.22 1151.73V1156.94H2729.12V1151.73C2720.49 1151.73 2714.54 1150.94 2711.26 1149.34C2708.07 1147.75 2705.82 1145.64 2704.51 1143.02C2703.29 1140.3 2702.68 1133.78 2702.68 1123.47ZM2702.68 1059.62V977.219H2708.44C2720.72 977.219 2729.96 980.5 2736.15 987.062C2742.33 993.625 2745.43 1003.98 2745.43 1018.14C2745.43 1032.39 2742.33 1042.94 2736.15 1049.78C2729.96 1056.53 2721.15 1059.91 2709.71 1059.91C2708.12 1059.91 2705.77 1059.81 2702.68 1059.62Z" fill="white"/>
<path fill-rule="evenodd" clip-rule="evenodd" d="M1661.44 642.599V741.148C1661.44 751.46 1660.78 757.929 1659.47 760.554C1658.25 763.179 1656.05 765.335 1652.86 767.023C1649.77 768.616 1643.81 769.413 1635 769.413V774.616H1731.89V769.413C1723.27 769.413 1717.31 768.616 1714.03 767.023C1710.84 765.429 1708.59 763.319 1707.28 760.694C1706.06 757.976 1705.45 751.46 1705.45 741.148V688.273C1727.11 688.273 1742.48 687.148 1751.58 684.898C1765.08 681.71 1775.67 675.71 1783.36 666.898C1791.05 658.085 1794.89 647.491 1794.89 635.116C1794.89 620.491 1788.94 608.304 1777.03 598.554C1765.42 589.042 1746.44 584.17 1720.1 583.938L1709.14 594.898H1711.22C1723.5 594.898 1732.73 598.179 1738.92 604.741C1745.11 611.304 1748.2 621.663 1748.2 635.819C1748.2 650.069 1745.11 660.616 1738.92 667.46C1732.73 674.21 1723.92 677.585 1712.48 677.585C1710.89 677.585 1708.55 677.491 1705.45 677.304V598.584L1661.44 642.599ZM2053.75 607.835C2034.82 588.991 2010.16 580.132 1979.78 581.257C1951.66 580.132 1927.94 589.038 1908.63 607.976C1889.41 626.819 1879.8 650.398 1879.8 678.71C1879.8 703.929 1887.21 725.726 1902.02 744.101C1920.77 767.351 1947.3 778.976 1981.61 778.976C2015.83 778.976 2042.32 766.788 2061.07 742.413C2075.22 724.038 2082.3 702.757 2082.3 678.569C2082.3 650.257 2072.78 626.679 2053.75 607.835ZM1941.67 616.976C1950.77 599.163 1964.03 590.257 1981.47 590.257C1990.94 590.257 1999.28 592.835 2006.5 597.991C2013.82 603.148 2019.82 612.007 2024.5 624.569C2029.19 637.038 2031.53 655.882 2031.53 681.101C2031.53 702.288 2029.24 719.491 2024.64 732.71C2020.05 745.835 2013.63 755.398 2005.38 761.398C1998.91 766.085 1990.85 768.429 1981.19 768.429C1966.85 768.429 1955.69 762.991 1947.72 752.116C1936.28 736.554 1930.57 712.507 1930.57 679.976C1930.57 652.601 1934.27 631.601 1941.67 616.976ZM2235.97 672.523V594.898H2255.66C2270.1 594.898 2279.94 595.741 2285.19 597.429C2294.19 600.241 2301.13 604.648 2306.01 610.648C2310.97 616.648 2314.82 626.538 2317.54 640.319H2322.88V583.929H2163.27V589.132H2169.6C2175.79 589.132 2180.66 590.444 2184.22 593.069C2186.76 594.851 2188.49 597.382 2189.43 600.663C2189.9 602.632 2190.13 607.929 2190.13 616.554V741.991C2190.13 751.554 2189.62 757.46 2188.58 759.71C2187.27 762.898 2185.4 765.148 2182.96 766.46C2179.58 768.429 2175.13 769.413 2169.6 769.413H2163.27V774.616H2328.08L2336.66 714.007H2331.46C2326.77 730.882 2319.04 743.444 2308.26 751.694C2297.57 759.944 2283.32 764.069 2265.51 764.069H2254.12C2248.68 764.069 2244.74 763.319 2242.3 761.819C2239.87 760.319 2238.18 758.398 2237.24 756.054C2236.4 753.71 2235.97 747.288 2235.97 736.788V683.069C2245.07 683.069 2252.01 684.288 2256.79 686.726C2261.57 689.069 2265.74 693.71 2269.3 700.648C2272.96 707.585 2275.35 716.491 2276.47 727.366H2281.82V627.523H2276.47C2274.97 642.335 2271.51 653.538 2266.07 661.132C2260.63 668.726 2251.87 672.523 2239.77 672.523H2235.97ZM2596.09 635.538V583.929H2424.81V635.538H2430.15C2432.31 621.476 2437.46 610.648 2445.62 603.054C2451.43 597.616 2460.76 594.898 2473.6 594.898H2487.38V741.991C2487.38 751.554 2486.87 757.46 2485.84 759.71C2484.43 762.898 2482.51 765.148 2480.07 766.46C2476.7 768.429 2472.24 769.413 2466.71 769.413H2460.38V774.616H2560.23V769.413H2553.9C2548.46 769.413 2544.15 768.523 2540.96 766.741C2537.87 764.866 2535.76 762.71 2534.63 760.273C2533.6 757.835 2533.09 751.741 2533.09 741.991V594.898H2547.29C2556.2 594.898 2562.43 595.741 2565.99 597.429C2572.37 600.523 2577.38 604.694 2581.04 609.944C2584.7 615.101 2588.03 623.632 2591.03 635.538H2596.09ZM2749.76 672.523V594.898H2769.45C2783.89 594.898 2793.73 595.741 2798.98 597.429C2807.98 600.241 2814.92 604.648 2819.79 610.648C2824.76 616.648 2828.61 626.538 2831.32 640.319H2836.67V583.929H2677.06V589.132H2683.39C2689.57 589.132 2694.45 590.444 2698.01 593.069C2700.54 594.851 2702.28 597.382 2703.22 600.663C2703.68 602.632 2703.92 607.929 2703.92 616.554V741.991C2703.92 751.554 2703.4 757.46 2702.37 759.71C2701.06 762.898 2699.18 765.148 2696.75 766.46C2693.37 768.429 2688.92 769.413 2683.39 769.413H2677.06V774.616H2841.87L2850.45 714.007H2845.25C2840.56 730.882 2832.82 743.444 2822.04 751.694C2811.36 759.944 2797.11 764.069 2779.29 764.069H2767.9C2762.47 764.069 2758.53 763.319 2756.09 761.819C2753.65 760.319 2751.97 758.398 2751.03 756.054C2750.18 753.71 2749.76 747.288 2749.76 736.788V683.069C2758.86 683.069 2765.79 684.288 2770.57 686.726C2775.36 689.069 2779.53 693.71 2783.09 700.648C2786.75 707.585 2789.14 716.491 2790.26 727.366H2795.61V627.523H2790.26C2788.76 642.335 2785.29 653.538 2779.86 661.132C2774.42 668.726 2765.65 672.523 2753.56 672.523H2749.76ZM3004.69 741.148V687.71H3017.2L3078.66 774.616H3138.7V769.413C3133.64 769.132 3129.19 767.538 3125.34 764.632C3122.81 762.569 3118.55 757.366 3112.55 749.023L3066.7 684.476C3078.33 681.569 3087.38 677.21 3093.84 671.398C3103.97 662.21 3109.03 650.585 3109.03 636.523C3109.03 624.991 3105.66 614.96 3098.91 606.429C3092.16 597.804 3083.44 591.898 3072.75 588.71C3062.06 585.523 3045.19 583.929 3022.12 583.929H2933.53V589.132C2942.25 589.132 2948.2 589.929 2951.39 591.523C2954.58 593.116 2956.78 595.273 2958 597.991C2959.31 600.616 2959.97 607.085 2959.97 617.398V741.148C2959.97 751.46 2959.31 757.929 2958 760.554C2956.78 763.179 2954.58 765.335 2951.39 767.023C2948.3 768.616 2942.34 769.413 2933.53 769.413V774.616H3031.12V769.413C3022.41 769.413 3016.45 768.616 3013.27 767.023C3010.08 765.429 3007.83 763.319 3006.52 760.694C3005.3 757.976 3004.69 751.46 3004.69 741.148ZM3004.69 677.726V594.194H3019.73C3034.83 594.194 3045.75 597.663 3052.5 604.601C3059.34 611.538 3062.77 622.273 3062.77 636.804C3062.77 646.835 3060.89 654.991 3057.14 661.273C3053.48 667.46 3048.42 671.773 3041.95 674.21C3035.48 676.554 3025.73 677.726 3012.7 677.726H3004.69ZM3337.94 643.132L3336.39 579.569H3332.18C3330.96 585.288 3329.64 588.898 3328.24 590.398C3326.83 591.898 3324.91 592.648 3322.47 592.648C3319.94 592.648 3315.49 591.148 3309.11 588.148C3302.83 585.054 3297.49 582.944 3293.08 581.819C3287.27 580.319 3281.27 579.569 3275.08 579.569C3258.11 579.569 3244.05 584.913 3232.89 595.601C3221.74 606.288 3216.16 619.226 3216.16 634.413C3216.16 643.319 3218.18 651.476 3222.21 658.882C3226.33 666.288 3232.19 672.991 3239.78 678.991C3247.38 684.991 3259.85 692.257 3277.19 700.788C3289.57 706.882 3298.19 711.851 3303.07 715.694C3307.94 719.444 3311.55 723.429 3313.89 727.648C3316.33 731.866 3317.55 736.226 3317.55 740.726C3317.55 748.319 3314.41 754.976 3308.13 760.694C3301.94 766.413 3293.6 769.273 3283.1 769.273C3269.5 769.273 3256.8 763.976 3244.99 753.382C3233.27 742.694 3225.35 727.226 3221.22 706.976H3216.02V778.976H3221.22C3222.91 775.132 3225.11 772.273 3227.83 770.398C3230.55 768.523 3233.13 767.585 3235.57 767.585C3238.47 767.585 3242.18 768.523 3246.68 770.398C3254.74 773.773 3261.44 776.069 3266.78 777.288C3272.13 778.507 3277.8 779.116 3283.8 779.116C3302.93 779.116 3318.68 773.398 3331.05 761.96C3343.52 750.429 3349.75 736.694 3349.75 720.757C3349.75 708.194 3345.91 697.038 3338.22 687.288C3330.44 677.538 3315.39 667.179 3293.08 656.21C3277.14 648.335 3266.97 642.851 3262.57 639.757C3256.57 635.444 3252.21 631.085 3249.49 626.679C3247.52 623.398 3246.53 619.648 3246.53 615.429C3246.53 608.773 3249.3 602.913 3254.83 597.851C3260.46 592.694 3268.05 590.116 3277.61 590.116C3289.99 590.116 3301.47 594.991 3312.07 604.741C3322.75 614.398 3329.46 627.194 3332.18 643.132H3337.94Z" fill="white"/>
<path fill-rule="evenodd" clip-rule="evenodd" d="M287.473 659.572C288.224 661.495 289.097 663.372 290.094 665.203C294.219 672.609 300.078 679.312 307.672 685.312C315.266 691.312 327.734 698.578 345.078 707.109C357.453 713.203 366.078 718.172 370.953 722.016C375.828 725.766 379.438 729.75 381.781 733.969C384.219 738.188 385.438 742.547 385.438 747.047C385.438 754.641 382.297 761.297 376.016 767.016C369.828 772.734 361.484 775.594 350.984 775.594C337.391 775.594 324.688 770.297 312.875 759.703C301.156 749.016 293.234 733.547 289.109 713.297H283.906V785.297H289.109C290.797 781.453 293 778.594 295.719 776.719C298.438 774.844 301.016 773.906 303.453 773.906C306.359 773.906 310.062 774.844 314.562 776.719C322.625 780.094 329.328 782.391 334.672 783.609C340.016 784.828 345.688 785.438 351.688 785.438C370.812 785.438 386.562 779.719 398.938 768.281C411.406 756.75 417.641 743.016 417.641 727.078C417.641 714.516 413.797 703.359 406.109 693.609C398.328 683.859 383.281 673.5 360.969 662.531C345.031 654.656 334.859 649.172 330.453 646.078C324.453 641.766 320.094 637.406 317.375 633C316.95 632.291 316.57 631.561 316.237 630.808L287.473 659.572ZM350.353 596.692C360.891 597.809 370.758 602.599 379.953 611.062C390.641 620.719 397.344 633.516 400.062 649.453H405.828L404.281 585.891H400.062C398.844 591.609 397.531 595.219 396.125 596.719C394.719 598.219 392.797 598.969 390.359 598.969C387.828 598.969 383.375 597.469 377 594.469C370.719 591.375 365.375 589.266 360.969 588.141C360.418 587.998 359.865 587.863 359.311 587.734L350.353 596.692ZM681.144 747.188L614.066 663.234L669.894 618.516C683.581 607.453 692.3 600.984 696.05 599.109C699.894 597.141 705.144 595.922 711.8 595.453V590.25H637.409V595.453C645.566 595.734 650.675 596.391 652.737 597.422C656.769 599.484 658.784 602.297 658.784 605.859C658.784 610.641 653.862 617.016 644.019 624.984L573.284 682.219V622.875C573.284 613.219 573.847 607.219 574.972 604.875C576.378 601.781 578.3 599.578 580.737 598.266C584.112 596.391 589.034 595.453 595.503 595.453V590.25H500.581V595.453H506.909C512.253 595.453 516.472 596.391 519.566 598.266C522.753 600.047 524.863 602.156 525.894 604.594C526.925 607.031 527.441 613.125 527.441 622.875V748.312C527.441 757.875 526.925 763.781 525.894 766.031C524.581 769.219 522.706 771.469 520.269 772.781C516.894 774.75 512.441 775.734 506.909 775.734H500.581V780.938H596.769V775.734C589.737 775.734 584.628 774.891 581.441 773.203C578.253 771.422 576.097 769.312 574.972 766.875C573.847 764.438 573.284 758.25 573.284 748.312V696.281L580.316 690.375L624.05 745.359C632.675 756.234 636.987 763.641 636.987 767.578C636.987 769.641 636.05 771.375 634.175 772.781C632.394 774.188 628.362 775.172 622.081 775.734V780.938H721.362V775.734C715.831 775.734 710.581 774.234 705.612 771.234C698.769 767.016 690.612 759 681.144 747.188ZM968.272 614.156C949.334 595.312 924.678 586.453 894.303 587.578C866.178 586.453 842.459 595.359 823.147 614.297C803.928 633.141 794.319 656.719 794.319 685.031C794.319 710.25 801.725 732.047 816.537 750.422C835.287 773.672 861.819 785.297 896.131 785.297C930.35 785.297 956.834 773.109 975.584 748.734C989.741 730.359 996.819 709.078 996.819 684.891C996.819 656.578 987.303 633 968.272 614.156ZM856.194 623.297C865.287 605.484 878.553 596.578 895.991 596.578C905.459 596.578 913.803 599.156 921.022 604.312C928.334 609.469 934.334 618.328 939.022 630.891C943.709 643.359 946.053 662.203 946.053 687.422C946.053 708.609 943.756 725.812 939.162 739.031C934.569 752.156 928.147 761.719 919.897 767.719C913.428 772.406 905.366 774.75 895.709 774.75C881.366 774.75 870.209 769.312 862.241 758.438C850.803 742.875 845.084 718.828 845.084 686.297C845.084 658.922 848.787 637.922 856.194 623.297ZM935.225 539.484C931.662 535.828 927.256 534 922.006 534C916.85 534 912.444 535.828 908.787 539.484C905.131 543.141 903.303 547.547 903.303 552.703C903.303 557.859 905.131 562.266 908.787 565.922C912.444 569.578 916.85 571.406 922.006 571.406C927.162 571.406 931.569 569.578 935.225 565.922C938.881 562.266 940.709 557.859 940.709 552.703C940.709 547.547 938.881 543.141 935.225 539.484ZM882.631 539.484C879.069 535.828 874.662 534 869.412 534C864.256 534 859.85 535.828 856.194 539.484C852.537 543.141 850.709 547.547 850.709 552.703C850.709 557.859 852.537 562.266 856.194 565.922C859.85 569.578 864.256 571.406 869.412 571.406C874.569 571.406 878.975 569.578 882.631 565.922C886.287 562.266 888.116 557.859 888.116 552.703C888.116 547.547 886.287 543.141 882.631 539.484ZM1237.82 708.516L1143.74 590.25H1076.1V595.453C1081.92 595.641 1086.37 596.531 1089.46 598.125C1092.56 599.719 1096.12 603.047 1100.15 608.109L1104.23 613.172V747.75C1104.23 757.875 1102.17 765.047 1098.04 769.266C1093.92 773.484 1086.6 775.641 1076.1 775.734V780.938H1143.74V775.734H1139.24C1132.78 775.734 1127.01 773.812 1121.95 769.969C1116.98 766.125 1114.49 758.719 1114.49 747.75V626.531L1243.45 785.297H1248.23V626.531C1248.23 617.531 1248.98 611.203 1250.48 607.547C1252.07 603.797 1254.23 601.125 1256.95 599.531C1259.76 597.844 1265.2 596.484 1273.26 595.453V590.25H1210.26V595.453C1220.85 595.266 1228.4 597.891 1232.9 603.328C1236.18 607.359 1237.82 615.094 1237.82 626.531V708.516ZM1397.4 726.656H1464.76L1474.89 750.422C1477.51 756.609 1478.92 760.125 1479.11 760.969C1479.67 762.75 1479.95 764.484 1479.95 766.172C1479.95 768.984 1478.92 771.141 1476.86 772.641C1473.86 774.703 1468.65 775.734 1461.25 775.734H1457.45V780.938H1549.7V775.734C1543.89 775.266 1539.39 773.578 1536.2 770.672C1531.98 766.828 1526.59 757.5 1520.03 742.688L1451.26 586.312H1448.59L1380.39 738.469C1373.92 753 1368.48 762.609 1364.07 767.297C1359.67 771.891 1354.04 774.703 1347.2 775.734V780.938H1410.62V775.734C1400.68 774.984 1394.45 773.859 1391.92 772.359C1387.61 769.828 1385.45 765.891 1385.45 760.547C1385.45 756.516 1386.76 751.406 1389.39 745.219L1397.4 726.656ZM1431.57 650.578L1459.98 716.25H1402.32L1431.57 650.578Z" fill="white"/>
</svg>
